<?xml version="1.0" encoding="UTF-8"?>
<svg id="Layer_1" data-name="Layer 1" xmlns="http://www.w3.org/2000/svg" viewBox="0 0 121.13 122.34">
  <defs>
    <style>
      .cls-1 {
        fill: #17301d;
      }
    </style>
  </defs>
  <path class="cls-1" d="M45.27,11.3C19.87,13.73,0,35.13,0,61.17s19.87,47.44,45.27,49.88c-12.44-11.09-20.54-29.3-20.54-49.88s8.11-38.79,20.54-49.87Z"/>
  <path class="cls-1" d="M121.12,74.84h-22.79c-5.95,21.03-25.28,36.44-48.22,36.44-1.63,0-3.24-.08-4.84-.24,7.98,7.11,17.74,11.3,28.27,11.3,23.2,0,42.63-20.31,47.58-47.51Z"/>
  <path class="cls-1" d="M98.34,47.51h22.79C116.17,20.3,96.74,0,73.54,0c-10.53,0-20.29,4.18-28.27,11.3,1.6-.15,3.21-.24,4.84-.24,22.94,0,42.28,15.41,48.22,36.44h0Z"/>
</svg>